<svg width="31" height="38" viewBox="0 0 31 38" fill="none" xmlns="http://www.w3.org/2000/svg">
<path d="M15.0942 16.2569C19.5835 16.2569 23.2227 12.6176 23.2227 8.12843C23.2227 3.63922 19.5835 0 15.0942 0C10.605 0 6.96582 3.63922 6.96582 8.12843C6.96582 12.6176 10.605 16.2569 15.0942 16.2569Z" fill="#575F86"/>
<path d="M15.0938 18.5791C18.675 18.5341 22.1554 19.766 24.9111 22.0537C27.6668 24.3413 29.518 27.5352 30.1328 31.0635C30.2413 31.8052 30.1881 32.5619 29.9775 33.2812C29.767 34.0006 29.4043 34.6663 28.9131 35.2324C28.384 35.841 27.7288 36.3277 26.9941 36.6602C26.2595 36.9925 25.4616 37.1625 24.6553 37.1582H22.1553C22.2456 36.7028 22.2939 36.232 22.2939 35.75C22.2939 31.7736 19.0701 28.5499 15.0938 28.5498C11.1173 28.5498 7.89355 31.7736 7.89355 35.75C7.89357 36.232 7.94189 36.7027 8.03223 37.1582H5.53223C4.72583 37.1625 3.92806 36.9926 3.19336 36.6602C2.45871 36.3278 1.80447 35.8409 1.27539 35.2324C0.784103 34.6663 0.420538 34.0007 0.209961 33.2812C-0.000589912 32.5619 -0.0537739 31.8051 0.0546875 31.0635C0.669512 27.5353 2.52081 24.3413 5.27637 22.0537C8.03207 19.7661 11.5125 18.5341 15.0938 18.5791Z" fill="#E0AD22"/>
</svg>
